<svg width="43" height="43" viewBox="0 0 43 43" fill="none" xmlns="http://www.w3.org/2000/svg">
<path fill-rule="evenodd" clip-rule="evenodd" d="M5.53772 39.4603C4.60325 39.4603 3.8457 38.6986 3.8457 37.759V5.89641C3.8457 4.95678 4.60325 4.19507 5.53772 4.19507H37.4189C38.3534 4.19507 39.1109 4.95678 39.1109 5.89641V37.759C39.1109 38.6986 38.3534 39.4603 37.4189 39.4603C36.2909 39.4603 25.6638 39.4603 5.53772 39.4603Z" stroke="white" stroke-width="3" stroke-linecap="round" stroke-linejoin="round"/>
<path fill-rule="evenodd" clip-rule="evenodd" d="M33.2294 16.9282H29.7397H29.3274C28.2453 16.9282 27.3682 17.8054 27.3682 18.8874V22.8069H33.2294L32.3711 28.6824H27.3682V39.4604H20.9227V28.6824H15.6011V22.8069H20.8539L20.9227 17.2299L20.9035 15.2311C20.8764 12.4085 23.1425 10.0984 25.9651 10.0713C25.9815 10.0711 25.9978 10.071 26.0142 10.071H33.2294V16.9282Z" fill="white"/>
</svg>
