<svg width="50" height="50" viewBox="0 0 50 50" fill="none" xmlns="http://www.w3.org/2000/svg">
<path fill-rule="evenodd" clip-rule="evenodd" d="M17.0484 5.123C19.2345 5.02236 19.9315 5 25.5 5C31.0685 5 31.7655 5.02423 33.9497 5.123C36.1339 5.22177 37.6248 5.57027 38.9294 6.07532C40.2954 6.59155 41.5347 7.3985 42.5597 8.44214C43.6034 9.46527 44.4085 10.7027 44.9228 12.0706C45.4297 13.3752 45.7764 14.8661 45.877 17.0465C45.9776 19.2363 46 19.9333 46 25.5C46 31.0685 45.9758 31.7655 45.877 33.9516C45.7782 36.132 45.4297 37.623 44.9228 38.9275C44.4084 40.2956 43.602 41.5351 42.5597 42.5597C41.5347 43.6034 40.2954 44.4085 38.9294 44.9228C37.6248 45.4297 36.1339 45.7764 33.9535 45.877C31.7655 45.9776 31.0685 46 25.5 46C19.9315 46 19.2345 45.9758 17.0484 45.877C14.868 45.7782 13.377 45.4297 12.0725 44.9228C10.7044 44.4084 9.46494 43.602 8.44027 42.5597C7.39734 41.536 6.59027 40.2971 6.07532 38.9294C5.57027 37.6248 5.22364 36.1339 5.123 33.9535C5.02236 31.7637 5 31.0667 5 25.5C5 19.9315 5.02423 19.2345 5.123 17.0503C5.22177 14.8661 5.57027 13.3752 6.07532 12.0706C6.59103 10.7029 7.39872 9.46399 8.44214 8.44027C9.46535 7.39757 10.7036 6.59051 12.0706 6.07532C13.3752 5.57027 14.868 5.22364 17.0484 5.123ZM33.782 8.813C31.6202 8.71423 30.9716 8.69373 25.4981 8.69373C20.0246 8.69373 19.3761 8.71423 17.2143 8.813C15.2146 8.90432 14.13 9.23791 13.4069 9.51932C12.4508 9.89205 11.7669 10.3337 11.0494 11.0512C10.3692 11.7129 9.84579 12.5184 9.51745 13.4087C9.23605 14.1318 8.90245 15.2165 8.81114 17.2161C8.71236 19.378 8.69186 20.0265 8.69186 25.5C8.69186 30.9735 8.71236 31.622 8.81114 33.7839C8.90245 35.7835 9.23605 36.8682 9.51745 37.5913C9.84545 38.4802 10.3691 39.2872 11.0494 39.9488C11.711 40.629 12.5179 41.1527 13.4069 41.4807C14.13 41.7621 15.2146 42.0957 17.2143 42.187C19.3761 42.2858 20.0228 42.3063 25.4981 42.3063C30.9735 42.3063 31.6202 42.2858 33.782 42.187C35.7817 42.0957 36.8663 41.7621 37.5894 41.4807C38.5455 41.108 39.2294 40.6663 39.9469 39.9488C40.6271 39.2872 41.1508 38.4802 41.4788 37.5913C41.7602 36.8682 42.0938 35.7835 42.1851 33.7839C42.2839 31.622 42.3044 30.9735 42.3044 25.5C42.3044 20.0265 42.2839 19.378 42.1851 17.2161C42.0938 15.2165 41.7602 14.1318 41.4788 13.4087C41.1061 12.4527 40.6644 11.7687 39.9469 11.0512C39.2852 10.3711 38.4797 9.84771 37.5894 9.51932C36.8663 9.23791 35.7817 8.90432 33.782 8.813ZM22.8797 31.8196C24.342 32.4283 25.9703 32.5105 27.4865 32.052C29.0027 31.5936 30.3126 30.623 31.1927 29.306C32.0727 27.989 32.4682 26.4074 32.3117 24.8312C32.1551 23.2549 31.4562 21.782 30.3343 20.6639C29.6191 19.9491 28.7543 19.4018 27.8022 19.0614C26.8501 18.721 25.8344 18.5959 24.8282 18.6951C23.8219 18.7944 22.8502 19.1155 21.983 19.6354C21.1157 20.1552 20.3745 20.8609 19.8127 21.7016C19.251 22.5423 18.8826 23.4971 18.7341 24.4973C18.5856 25.4975 18.6607 26.5181 18.9541 27.4857C19.2474 28.4534 19.7516 29.344 20.4304 30.0933C21.1092 30.8427 21.9457 31.4323 22.8797 31.8196ZM18.0492 18.0492C19.0276 17.0707 20.1892 16.2946 21.4676 15.765C22.7461 15.2355 24.1163 14.963 25.5 14.963C26.8837 14.963 28.2539 15.2355 29.5324 15.765C30.8108 16.2946 31.9724 17.0707 32.9508 18.0492C33.9293 19.0276 34.7054 20.1892 35.235 21.4676C35.7645 22.7461 36.037 24.1163 36.037 25.5C36.037 26.8837 35.7645 28.2539 35.235 29.5324C34.7054 30.8108 33.9293 31.9724 32.9508 32.9508C30.9747 34.9269 28.2946 36.037 25.5 36.037C22.7054 36.037 20.0253 34.9269 18.0492 32.9508C16.0731 30.9747 14.963 28.2946 14.963 25.5C14.963 22.7054 16.0731 20.0253 18.0492 18.0492ZM38.374 16.5322C38.6165 16.3035 38.8106 16.0284 38.9448 15.7233C39.0791 15.4182 39.1508 15.0893 39.1556 14.756C39.1605 14.4227 39.0984 14.0918 38.9731 13.783C38.8478 13.4741 38.6618 13.1935 38.4261 12.9578C38.1904 12.7221 37.9098 12.5361 37.6009 12.4108C37.2921 12.2855 36.9612 12.2234 36.6279 12.2283C36.2946 12.2331 35.9657 12.3048 35.6606 12.4391C35.3555 12.5733 35.0805 12.7674 34.8517 13.0099C34.4069 13.4815 34.1634 14.1078 34.1728 14.756C34.1823 15.4042 34.444 16.0232 34.9023 16.4816C35.3607 16.94 35.9797 17.2017 36.6279 17.2111C37.2761 17.2206 37.9024 16.977 38.374 16.5322Z" fill="white"/>
</svg>
